<svg width="286" height="59" viewBox="0 0 286 59" fill="none" xmlns="http://www.w3.org/2000/svg">
<path d="M31.7114 27.5271C32.0662 27.7531 32.3583 28.065 32.5607 28.4338C32.7631 28.8026 32.8692 29.2165 32.8692 29.6372C32.8692 30.0579 32.7631 30.4718 32.5607 30.8406C32.3583 31.2094 32.0662 31.5213 31.7114 31.7473L3.84587 49.4947C2.18046 50.5554 0.000202179 49.3589 0.000202179 47.3846V11.8892C0.000202179 9.91468 2.18046 8.71844 3.84587 9.77942L31.7114 27.5271Z" fill="white"/>
<path d="M43.8539 36.4672C44.2056 36.6939 44.4948 37.0052 44.695 37.3725C44.8953 37.7399 45.0002 38.1516 45.0002 38.57C45.0002 38.9884 44.8953 39.4001 44.695 39.7674C44.4948 40.1348 44.2056 40.446 43.8539 40.6727L16.366 58.3908C14.7012 59.464 12.5089 58.2688 12.5089 56.2881V20.8519C12.5089 18.8713 14.7012 17.6761 16.366 18.7491L43.8539 36.4672Z" fill="white"/>
<path d="M43.8539 18.1212C44.2056 18.3478 44.4948 18.6591 44.695 19.0264C44.8953 19.3938 45.0002 19.8055 45.0002 20.2239C45.0002 20.6423 44.8953 21.054 44.695 21.4214C44.4948 21.7887 44.2056 22.1 43.8539 22.3266L16.366 40.0447C14.7012 41.1179 12.5089 39.9227 12.5089 37.942V2.50585C12.5089 0.525231 14.7012 -0.670012 16.366 0.403063L43.8539 18.1212Z" fill="white"/>
<path d="M32.9395 29.4013L12.5144 43.9903L12.5067 15.2886L32.9395 29.4013Z" fill="#FF5822"/>
<path d="M76.078 33.59C76.078 38.492 70.91 41.57 66.198 41.57C61.676 41.57 56.014 38.948 56.014 32.982V24.014C56.014 18.048 61.676 15.426 66.198 15.426C70.91 15.426 75.584 17.82 76.078 22.646C76.078 23.558 75.774 23.748 74.9 23.748H71.252C70.454 23.748 70.416 23.026 70.112 22.57C69.314 21.316 68.25 20.746 66.198 20.746C63.69 20.746 61.98 22.152 61.98 24.546V32.45C61.98 34.882 63.69 36.25 66.198 36.25C68.25 36.25 69.884 35.49 70.188 33.666C70.302 32.906 70.378 32.298 71.214 32.298H74.938C75.774 32.298 76.078 32.678 76.078 33.59ZM99.8598 15.996C100.582 15.996 100.658 16.642 100.468 17.06L92.6398 31.614V39.898C92.6398 40.772 92.2218 41 91.5378 41H87.7378C87.0158 41 86.6358 40.772 86.6358 39.898V31.614L78.5038 17.06C78.3138 16.642 78.3898 15.996 79.1118 15.996H83.4818C84.3558 15.996 84.7358 16.11 85.2678 17.136L89.7138 25.306L94.0078 17.136C94.5018 16.11 94.8818 15.996 95.7558 15.996H99.8598ZM121.577 28.042C121.881 28.156 125.073 29.6 125.073 33.704C125.073 38.53 121.311 41 116.029 41H104.857C103.983 41 103.755 40.582 103.755 39.898V17.06C103.755 16.376 103.983 15.958 104.857 15.958H115.497C121.691 15.958 124.351 19.264 124.351 22.836C124.351 26.674 121.919 27.89 121.577 28.042ZM116.105 35.604C117.967 35.604 119.031 34.844 119.031 33.134C119.031 31.348 117.701 30.816 115.877 30.816H115.003C114.129 30.816 113.901 30.398 113.901 29.714V26.826C113.901 26.142 114.129 25.724 115.003 25.724H115.497C117.701 25.724 118.651 24.926 118.651 23.444C118.651 21.734 117.473 21.316 115.497 21.316H109.721V35.604H116.105ZM147.969 35.68C148.843 35.68 149.071 36.098 149.071 36.782V39.898C149.071 40.582 148.843 41 147.969 41H130.945C130.071 41 129.843 40.582 129.843 39.898V17.098C129.843 16.414 130.071 15.996 130.945 15.996H147.323C148.197 15.996 148.425 16.414 148.425 17.098V20.252C148.425 20.936 148.197 21.354 147.323 21.354H135.847V25.496H146.031C146.905 25.496 147.133 25.914 147.133 26.598V29.562C147.133 30.246 146.905 30.664 146.031 30.664H135.847V35.68H147.969ZM174.149 39.784C174.491 40.316 174.301 41 173.579 41H169.095C168.183 41 167.727 40.658 167.195 39.86L163.091 33.742C162.749 33.286 162.673 32.868 162.673 31.804V28.764C162.673 28.08 162.901 27.662 163.775 27.662H164.535C166.397 27.662 168.145 26.37 168.145 24.584C168.145 22.608 166.625 21.354 164.649 21.354H159.595V39.898C159.595 40.772 159.177 41 158.493 41H154.731C154.047 41 153.667 40.772 153.667 39.898V17.136C153.667 16.452 153.857 16.034 154.731 16.034H164.307C168.449 16.034 170.273 16.87 171.869 18.466C173.275 19.834 174.073 22 174.073 24.432C174.073 28.422 171.147 31.196 168.791 31.994L174.149 39.784ZM198.622 32.982C198.622 38.986 192.922 41.57 188.4 41.57C183.878 41.57 178.254 38.986 178.254 32.982V24.014C178.254 18.01 183.878 15.426 188.4 15.426C192.922 15.426 198.622 18.01 198.622 24.014V32.982ZM192.656 24.546C192.656 22.114 190.908 20.708 188.4 20.708C185.93 20.708 184.182 22.114 184.182 24.546V32.45C184.182 34.882 185.93 36.288 188.4 36.288C190.908 36.288 192.656 34.882 192.656 32.45V24.546ZM220.378 35.68C221.252 35.68 221.48 36.098 221.48 36.782V39.898C221.48 40.582 221.252 41 220.378 41H204.57C203.696 41 203.468 40.582 203.468 39.898V17.098C203.468 16.224 203.886 15.996 204.57 15.996H208.332C209.016 15.996 209.434 16.224 209.434 17.098V35.68H220.378ZM242.495 35.68C243.369 35.68 243.597 36.098 243.597 36.782V39.898C243.597 40.582 243.369 41 242.495 41H226.687C225.813 41 225.585 40.582 225.585 39.898V17.098C225.585 16.224 226.003 15.996 226.687 15.996H230.449C231.133 15.996 231.551 16.224 231.551 17.098V35.68H242.495ZM258.571 35.794C259.445 35.794 259.673 36.212 259.673 36.896V39.898C259.673 40.582 259.445 41 258.571 41H247.817C246.943 41 246.715 40.582 246.715 39.898V36.896C246.715 36.212 246.943 35.794 247.817 35.794H250.211V21.278H247.893C247.019 21.278 246.791 20.86 246.791 20.176V17.098C246.791 16.414 247.019 15.996 247.893 15.996H258.457C259.331 15.996 259.559 16.414 259.559 17.098V20.176C259.559 20.86 259.331 21.278 258.457 21.278H256.177V35.794H258.571ZM282.713 35.68C283.587 35.68 283.815 36.098 283.815 36.782V39.898C283.815 40.582 283.587 41 282.713 41H265.689C264.815 41 264.587 40.582 264.587 39.898V17.098C264.587 16.414 264.815 15.996 265.689 15.996H282.067C282.941 15.996 283.169 16.414 283.169 17.098V20.252C283.169 20.936 282.941 21.354 282.067 21.354H270.591V25.496H280.775C281.649 25.496 281.877 25.914 281.877 26.598V29.562C281.877 30.246 281.649 30.664 280.775 30.664H270.591V35.68H282.713Z" fill="white"/>
</svg>
